<mxfile host="app.diagrams.net" modified="2023-03-26T03:00:24.990Z" agent="Mozilla/5.0 (Macintosh; Intel Mac OS X 10_15_6) AppleWebKit/605.1.15 (KHTML, like Gecko) Version/14.1.2 Safari/605.1.15" etag="6MFS1FSmPpkJo-1Ecuv8" version="21.1.1" type="github">
  <diagram name="Page-1" id="8qNhM6u0O5Ge0zd6cUa1">
    <mxGraphModel dx="1458" dy="980" grid="1" gridSize="10" guides="1" tooltips="1" connect="1" arrows="1" fold="1" page="1" pageScale="1" pageWidth="850" pageHeight="1100" math="0" shadow="0">
      <root>
        <mxCell id="0" />
        <mxCell id="1" parent="0" />
        <mxCell id="9uGNNZcCpxNuYlf3GEXS-1" value="&lt;font style=&quot;font-size: 24px;&quot;&gt;P&lt;/font&gt;" style="ellipse;whiteSpace=wrap;html=1;" vertex="1" parent="1">
          <mxGeometry x="210" y="465" width="120" height="80" as="geometry" />
        </mxCell>
        <mxCell id="sB23jCVbZb8Qh1ORmMZb-20" value="" style="rounded=0;whiteSpace=wrap;html=1;fillColor=#FFCCCC;" parent="1" vertex="1">
          <mxGeometry x="80" y="180" width="120" height="370" as="geometry" />
        </mxCell>
        <mxCell id="sB23jCVbZb8Qh1ORmMZb-4" value="&lt;font face=&quot;Verdana&quot; style=&quot;font-size: 18px;&quot;&gt;Kernel threads&amp;nbsp;&lt;/font&gt;" style="rounded=1;whiteSpace=wrap;html=1;arcSize=50;" parent="1" vertex="1">
          <mxGeometry x="200" y="790" width="140" height="60" as="geometry" />
        </mxCell>
        <mxCell id="sB23jCVbZb8Qh1ORmMZb-9" value="" style="shape=parallelogram;perimeter=parallelogramPerimeter;whiteSpace=wrap;html=1;fixedSize=1;fillColor=#CCFFFF;" parent="1" vertex="1">
          <mxGeometry x="150" y="20" width="840" height="120" as="geometry" />
        </mxCell>
        <mxCell id="sB23jCVbZb8Qh1ORmMZb-13" value="&lt;font style=&quot;font-size: 24px;&quot;&gt;G&lt;/font&gt;" style="ellipse;whiteSpace=wrap;html=1;aspect=fixed;" parent="1" vertex="1">
          <mxGeometry x="240" y="30" width="80" height="80" as="geometry" />
        </mxCell>
        <mxCell id="sB23jCVbZb8Qh1ORmMZb-14" value="&lt;font style=&quot;font-size: 24px;&quot;&gt;G&lt;/font&gt;" style="ellipse;whiteSpace=wrap;html=1;aspect=fixed;" parent="1" vertex="1">
          <mxGeometry x="365" y="30" width="80" height="80" as="geometry" />
        </mxCell>
        <mxCell id="sB23jCVbZb8Qh1ORmMZb-16" value="&lt;font style=&quot;font-size: 24px;&quot;&gt;G&lt;/font&gt;" style="ellipse;whiteSpace=wrap;html=1;aspect=fixed;" parent="1" vertex="1">
          <mxGeometry x="490" y="30" width="80" height="80" as="geometry" />
        </mxCell>
        <mxCell id="sB23jCVbZb8Qh1ORmMZb-17" value="&lt;font style=&quot;font-size: 24px;&quot;&gt;G&lt;/font&gt;" style="ellipse;whiteSpace=wrap;html=1;aspect=fixed;" parent="1" vertex="1">
          <mxGeometry x="620" y="30" width="80" height="80" as="geometry" />
        </mxCell>
        <mxCell id="sB23jCVbZb8Qh1ORmMZb-18" value="&lt;font face=&quot;Verdana&quot; size=&quot;5&quot;&gt;Global Queue&lt;/font&gt;" style="text;html=1;strokeColor=none;fillColor=none;align=center;verticalAlign=middle;whiteSpace=wrap;rounded=0;" parent="1" vertex="1">
          <mxGeometry x="830" y="50" width="60" height="40" as="geometry" />
        </mxCell>
        <mxCell id="sB23jCVbZb8Qh1ORmMZb-19" value="&lt;font style=&quot;font-size: 24px;&quot;&gt;M&lt;/font&gt;" style="ellipse;whiteSpace=wrap;html=1;movable=1;resizable=1;rotatable=1;deletable=1;editable=1;locked=0;connectable=1;" parent="1" vertex="1">
          <mxGeometry x="210" y="640" width="120" height="80" as="geometry" />
        </mxCell>
        <mxCell id="sB23jCVbZb8Qh1ORmMZb-22" value="&lt;font style=&quot;font-size: 24px;&quot;&gt;G&lt;/font&gt;" style="ellipse;whiteSpace=wrap;html=1;aspect=fixed;" parent="1" vertex="1">
          <mxGeometry x="100" y="315" width="80" height="80" as="geometry" />
        </mxCell>
        <mxCell id="sB23jCVbZb8Qh1ORmMZb-23" value="&lt;font style=&quot;font-size: 24px;&quot;&gt;G&lt;/font&gt;" style="ellipse;whiteSpace=wrap;html=1;aspect=fixed;" parent="1" vertex="1">
          <mxGeometry x="100" y="430" width="80" height="80" as="geometry" />
        </mxCell>
        <mxCell id="sB23jCVbZb8Qh1ORmMZb-24" value="" style="rounded=0;whiteSpace=wrap;html=1;fillColor=#FFCCCC;" parent="1" vertex="1">
          <mxGeometry x="345" y="170" width="120" height="370" as="geometry" />
        </mxCell>
        <mxCell id="sB23jCVbZb8Qh1ORmMZb-25" value="" style="rounded=0;whiteSpace=wrap;html=1;fillColor=#FFCCCC;" parent="1" vertex="1">
          <mxGeometry x="610" y="170" width="120" height="370" as="geometry" />
        </mxCell>
        <mxCell id="sB23jCVbZb8Qh1ORmMZb-26" value="&lt;font style=&quot;font-size: 24px;&quot;&gt;G&lt;/font&gt;" style="ellipse;whiteSpace=wrap;html=1;aspect=fixed;" parent="1" vertex="1">
          <mxGeometry x="365" y="195" width="80" height="80" as="geometry" />
        </mxCell>
        <mxCell id="sB23jCVbZb8Qh1ORmMZb-28" value="&lt;font style=&quot;font-size: 24px;&quot;&gt;G&lt;/font&gt;" style="ellipse;whiteSpace=wrap;html=1;aspect=fixed;" parent="1" vertex="1">
          <mxGeometry x="365" y="315" width="80" height="80" as="geometry" />
        </mxCell>
        <mxCell id="sB23jCVbZb8Qh1ORmMZb-31" value="&lt;font style=&quot;font-size: 24px;&quot;&gt;G&lt;/font&gt;" style="ellipse;whiteSpace=wrap;html=1;aspect=fixed;" parent="1" vertex="1">
          <mxGeometry x="100" y="200" width="80" height="80" as="geometry" />
        </mxCell>
        <mxCell id="sB23jCVbZb8Qh1ORmMZb-35" value="&lt;font face=&quot;Verdana&quot; style=&quot;font-size: 18px;&quot;&gt;Kernel threads&amp;nbsp;&lt;/font&gt;" style="rounded=1;whiteSpace=wrap;html=1;arcSize=50;" parent="1" vertex="1">
          <mxGeometry x="460" y="800" width="140" height="60" as="geometry" />
        </mxCell>
        <mxCell id="sB23jCVbZb8Qh1ORmMZb-36" value="&lt;font face=&quot;Verdana&quot; style=&quot;font-size: 18px;&quot;&gt;Kernel threads&amp;nbsp;&lt;/font&gt;" style="rounded=1;whiteSpace=wrap;html=1;arcSize=50;" parent="1" vertex="1">
          <mxGeometry x="740" y="800" width="140" height="60" as="geometry" />
        </mxCell>
        <mxCell id="sB23jCVbZb8Qh1ORmMZb-37" value="&lt;font style=&quot;font-size: 24px;&quot;&gt;M&lt;/font&gt;" style="ellipse;whiteSpace=wrap;html=1;movable=1;resizable=1;rotatable=1;deletable=1;editable=1;locked=0;connectable=1;" parent="1" vertex="1">
          <mxGeometry x="750" y="640" width="120" height="80" as="geometry" />
        </mxCell>
        <mxCell id="sB23jCVbZb8Qh1ORmMZb-38" value="&lt;font style=&quot;font-size: 24px;&quot;&gt;M&lt;/font&gt;" style="ellipse;whiteSpace=wrap;html=1;movable=1;resizable=1;rotatable=1;deletable=1;editable=1;locked=0;connectable=1;" parent="1" vertex="1">
          <mxGeometry x="470" y="650" width="120" height="80" as="geometry" />
        </mxCell>
        <mxCell id="sB23jCVbZb8Qh1ORmMZb-39" value="" style="endArrow=classic;html=1;rounded=0;entryX=0.5;entryY=0;entryDx=0;entryDy=0;exitX=0.5;exitY=1;exitDx=0;exitDy=0;" parent="1" source="sB23jCVbZb8Qh1ORmMZb-19" target="sB23jCVbZb8Qh1ORmMZb-4" edge="1">
          <mxGeometry width="50" height="50" relative="1" as="geometry">
            <mxPoint x="280" y="720" as="sourcePoint" />
            <mxPoint x="430" y="690" as="targetPoint" />
          </mxGeometry>
        </mxCell>
        <mxCell id="sB23jCVbZb8Qh1ORmMZb-40" value="" style="endArrow=classic;html=1;rounded=0;exitX=0.5;exitY=1;exitDx=0;exitDy=0;entryX=0.5;entryY=0;entryDx=0;entryDy=0;" parent="1" source="sB23jCVbZb8Qh1ORmMZb-38" target="sB23jCVbZb8Qh1ORmMZb-35" edge="1">
          <mxGeometry width="50" height="50" relative="1" as="geometry">
            <mxPoint x="560" y="750" as="sourcePoint" />
            <mxPoint x="610" y="700" as="targetPoint" />
          </mxGeometry>
        </mxCell>
        <mxCell id="sB23jCVbZb8Qh1ORmMZb-41" value="" style="endArrow=classic;html=1;rounded=0;exitX=0.5;exitY=1;exitDx=0;exitDy=0;" parent="1" source="sB23jCVbZb8Qh1ORmMZb-37" target="sB23jCVbZb8Qh1ORmMZb-36" edge="1">
          <mxGeometry width="50" height="50" relative="1" as="geometry">
            <mxPoint x="870" y="760" as="sourcePoint" />
            <mxPoint x="920" y="710" as="targetPoint" />
          </mxGeometry>
        </mxCell>
        <mxCell id="9uGNNZcCpxNuYlf3GEXS-3" value="&lt;font style=&quot;font-size: 24px;&quot;&gt;P&lt;/font&gt;" style="ellipse;whiteSpace=wrap;html=1;" vertex="1" parent="1">
          <mxGeometry x="470" y="460" width="120" height="80" as="geometry" />
        </mxCell>
        <mxCell id="9uGNNZcCpxNuYlf3GEXS-5" value="" style="curved=1;endArrow=classic;html=1;rounded=0;" edge="1" parent="1" source="sB23jCVbZb8Qh1ORmMZb-24">
          <mxGeometry width="50" height="50" relative="1" as="geometry">
            <mxPoint x="500" y="360" as="sourcePoint" />
            <mxPoint x="520" y="460" as="targetPoint" />
            <Array as="points">
              <mxPoint x="550" y="360" />
              <mxPoint x="500" y="310" />
            </Array>
          </mxGeometry>
        </mxCell>
        <mxCell id="9uGNNZcCpxNuYlf3GEXS-6" value="" style="curved=1;endArrow=classic;html=1;rounded=0;entryX=0.5;entryY=0;entryDx=0;entryDy=0;" edge="1" parent="1" target="9uGNNZcCpxNuYlf3GEXS-1">
          <mxGeometry width="50" height="50" relative="1" as="geometry">
            <mxPoint x="200" y="350" as="sourcePoint" />
            <mxPoint x="340" y="400" as="targetPoint" />
            <Array as="points">
              <mxPoint x="270" y="420" />
              <mxPoint x="220" y="330" />
              <mxPoint x="260" y="340" />
              <mxPoint x="290" y="360" />
              <mxPoint x="280" y="390" />
            </Array>
          </mxGeometry>
        </mxCell>
        <mxCell id="9uGNNZcCpxNuYlf3GEXS-7" value="&lt;font style=&quot;font-size: 24px;&quot;&gt;P&lt;/font&gt;" style="ellipse;whiteSpace=wrap;html=1;" vertex="1" parent="1">
          <mxGeometry x="750" y="460" width="120" height="80" as="geometry" />
        </mxCell>
        <mxCell id="9uGNNZcCpxNuYlf3GEXS-9" value="" style="curved=1;endArrow=classic;html=1;rounded=0;entryX=0.667;entryY=0;entryDx=0;entryDy=0;entryPerimeter=0;" edge="1" parent="1" target="9uGNNZcCpxNuYlf3GEXS-7">
          <mxGeometry width="50" height="50" relative="1" as="geometry">
            <mxPoint x="730" y="350" as="sourcePoint" />
            <mxPoint x="920" y="340" as="targetPoint" />
            <Array as="points">
              <mxPoint x="780" y="350" />
              <mxPoint x="840" y="370" />
            </Array>
          </mxGeometry>
        </mxCell>
        <mxCell id="9uGNNZcCpxNuYlf3GEXS-10" value="" style="endArrow=none;dashed=1;html=1;rounded=0;exitX=0.5;exitY=0;exitDx=0;exitDy=0;entryX=0.5;entryY=1;entryDx=0;entryDy=0;" edge="1" parent="1" source="sB23jCVbZb8Qh1ORmMZb-19" target="9uGNNZcCpxNuYlf3GEXS-1">
          <mxGeometry width="50" height="50" relative="1" as="geometry">
            <mxPoint x="70" y="680" as="sourcePoint" />
            <mxPoint x="120" y="630" as="targetPoint" />
          </mxGeometry>
        </mxCell>
        <mxCell id="9uGNNZcCpxNuYlf3GEXS-11" value="" style="endArrow=none;dashed=1;html=1;rounded=0;entryX=0.5;entryY=1;entryDx=0;entryDy=0;" edge="1" parent="1" target="9uGNNZcCpxNuYlf3GEXS-3">
          <mxGeometry width="50" height="50" relative="1" as="geometry">
            <mxPoint x="530" y="640" as="sourcePoint" />
            <mxPoint x="280" y="555" as="targetPoint" />
          </mxGeometry>
        </mxCell>
        <mxCell id="9uGNNZcCpxNuYlf3GEXS-12" value="" style="endArrow=none;dashed=1;html=1;rounded=0;entryX=0.5;entryY=1;entryDx=0;entryDy=0;" edge="1" parent="1" target="9uGNNZcCpxNuYlf3GEXS-7">
          <mxGeometry width="50" height="50" relative="1" as="geometry">
            <mxPoint x="810" y="630" as="sourcePoint" />
            <mxPoint x="540" y="550" as="targetPoint" />
          </mxGeometry>
        </mxCell>
      </root>
    </mxGraphModel>
  </diagram>
</mxfile>
